<?xml version="1.0" encoding="iso-8859-1"?>
<!-- Uploaded to: SVG Repo, www.svgrepo.com, Generator: SVG Repo Mixer Tools -->
<svg version="1.1" id="Layer_1" xmlns="http://www.w3.org/2000/svg" xmlns:xlink="http://www.w3.org/1999/xlink" 
	 viewBox="0 0 512.001 512.001" xml:space="preserve">
<path style="fill:#CCA400;" d="M232.772,305.44c-45.176-10.41-78.86-50.88-78.86-99.218c0-56.231,45.585-101.816,101.816-101.816
	s101.816,45.585,101.816,101.816c0,48.337-33.684,88.808-78.86,99.218H232.772z"/>
<path style="opacity:0.08;fill:#891C00;enable-background:new    ;" d="M317.278,125.119c12.994,17.095,20.712,38.421,20.712,61.55
	c0,48.337-33.684,88.808-78.86,99.218h-45.911c-14.223-3.277-27.304-9.54-38.556-18.084c14.16,18.612,34.567,32.213,58.11,37.638
	h45.911c45.176-10.41,78.86-50.881,78.86-99.218C357.544,173.122,341.744,143.715,317.278,125.119z"/>
<polygon style="fill:#FFCD00;" points="283.76,53.805 302.324,80.707 269.744,78.082 255.728,107.61 241.712,78.082 209.131,80.707 
	227.696,53.805 209.131,26.902 241.712,29.528 255.728,0 269.744,29.528 302.324,26.902 "/>
<rect x="148.903" y="476.151" style="fill:#CCA400;" width="213.641" height="35.85"/>
<path style="fill:#FFD422;" d="M232.773,264.739v70.184v33.483v17.438c0,9.922-8.043,17.965-17.965,17.965l0,0v43.607h81.841
	v-43.607l0,0c-9.922,0-17.965-8.043-17.965-17.965V264.739H232.773z"/>
<path style="fill:#EEBF00;" d="M309.741,476.155H201.714c-7.904,0-14.37-6.466-14.37-14.37l0,0c0-7.904,6.466-14.37,14.37-14.37
	h108.026c7.904,0,14.37,6.466,14.37,14.37l0,0C324.111,469.688,317.645,476.155,309.741,476.155z"/>
<g style="opacity:0.08;">
	<path style="fill:#891C00;" d="M275.073,403.808L275.073,403.808v43.607h13.093c7.904,0,14.37,6.466,14.37,14.37
		s-6.466,14.37-14.37,14.37h22.12c7.904,0,14.37-6.466,14.37-14.37s-6.466-14.37-14.37-14.37h-13.093v-43.607l0,0
		c-9.922,0-17.965-8.043-17.965-17.965V264.739h-22.12v121.104C257.108,395.765,265.151,403.808,275.073,403.808z"/>
	<rect x="340.976" y="476.151" style="fill:#891C00;" width="22.122" height="35.84"/>
</g>
<rect x="232.777" y="274.213" style="opacity:0.65;fill:#CCA400;enable-background:new    ;" width="45.91" height="40.026"/>
<polygon style="fill:#FFCD00;" points="232.937,136.498 255.728,104.22 327.749,206.223 255.728,308.227 183.706,206.223 
	212.798,165.02 "/>
<polygon style="opacity:0.08;fill:#891C00;enable-background:new    ;" points="255.728,279.859 193.721,192.039 183.706,206.223 
	255.728,308.227 327.749,206.223 317.734,192.039 "/>
<g style="opacity:0.53;">
	<path style="fill:#FFFFFF;" d="M297.487,214.053h-41.759c-4.325,0-7.83-3.506-7.83-7.83v-40.098c0-4.324,3.505-7.83,7.83-7.83
		c4.325,0,7.83,3.506,7.83,7.83v32.268h33.929c4.325,0,7.83,3.506,7.83,7.83C305.317,210.548,301.813,214.053,297.487,214.053z"/>
</g>
<g style="opacity:0.21;">
	<path style="fill:#FFFFFF;" d="M283.76,53.805l18.564-26.902l-32.581,2.626L255.728,0l-14.017,29.528l-32.581-2.626l18.564,26.902
		L218.7,66.839c17.741-0.856,42.035-3.653,66.039-11.614L283.76,53.805z"/>
</g>
</svg>